<svg viewBox="0 0 1192 400" xmlns="http://www.w3.org/2000/svg"><g><g><g><g><g><line x1="74.78125" y1="376" x2="69.78125" y2="376" style="visibility: inherit;" fill="rgb(0, 0, 0)" stroke="rgb(204, 204, 204)" stroke-width="1px"></line><line x1="74.78125" y1="341.8181818181818" x2="69.78125" y2="341.8181818181818" style="visibility: inherit;" fill="rgb(0, 0, 0)" stroke="rgb(204, 204, 204)" stroke-width="1px"></line><line x1="74.78125" y1="307.6363636363636" x2="69.78125" y2="307.6363636363636" style="visibility: inherit;" fill="rgb(0, 0, 0)" stroke="rgb(204, 204, 204)" stroke-width="1px"></line><line x1="74.78125" y1="273.45454545454544" x2="69.78125" y2="273.45454545454544" style="visibility: inherit;" fill="rgb(0, 0, 0)" stroke="rgb(204, 204, 204)" stroke-width="1px"></line><line x1="74.78125" y1="239.2727272727273" x2="69.78125" y2="239.2727272727273" style="visibility: inherit;" fill="rgb(0, 0, 0)" stroke="rgb(204, 204, 204)" stroke-width="1px"></line><line x1="74.78125" y1="205.09090909090907" x2="69.78125" y2="205.09090909090907" style="visibility: inherit;" fill="rgb(0, 0, 0)" stroke="rgb(204, 204, 204)" stroke-width="1px"></line><line x1="74.78125" y1="170.90909090909088" x2="69.78125" y2="170.90909090909088" style="visibility: inherit;" fill="rgb(0, 0, 0)" stroke="rgb(204, 204, 204)" stroke-width="1px"></line><line x1="74.78125" y1="136.72727272727272" x2="69.78125" y2="136.72727272727272" style="visibility: inherit;" fill="rgb(0, 0, 0)" stroke="rgb(204, 204, 204)" stroke-width="1px"></line><line x1="74.78125" y1="102.54545454545453" x2="69.78125" y2="102.54545454545453" style="visibility: inherit;" fill="rgb(0, 0, 0)" stroke="rgb(204, 204, 204)" stroke-width="1px"></line><line x1="74.78125" y1="68.36363636363635" x2="69.78125" y2="68.36363636363635" style="visibility: inherit;" fill="rgb(0, 0, 0)" stroke="rgb(204, 204, 204)" stroke-width="1px"></line><line x1="74.78125" y1="34.181818181818194" x2="69.78125" y2="34.181818181818194" style="visibility: inherit;" fill="rgb(0, 0, 0)" stroke="rgb(204, 204, 204)" stroke-width="1px"></line><line x1="74.78125" y1="0" x2="69.78125" y2="0" style="visibility: inherit;" fill="rgb(0, 0, 0)" stroke="rgb(204, 204, 204)" stroke-width="1px"></line></g><g transform="translate(64.78125, 0)"><text x="0" y="376" dx="0em" dy="0.3em" style="text-anchor: end; visibility: hidden; font-family: Roboto, sans-serif; font-size: 12px; font-weight: 200;" fill="rgb(33, 33, 33)" stroke="none" stroke-width="1px">-2e-4</text><text x="0" y="341.8181818181818" dx="0em" dy="0.3em" style="text-anchor: end; visibility: inherit; font-family: Roboto, sans-serif; font-size: 12px; font-weight: 200;" fill="rgb(33, 33, 33)" stroke="none" stroke-width="1px">0</text><text x="0" y="307.6363636363636" dx="0em" dy="0.3em" style="text-anchor: end; visibility: inherit; font-family: Roboto, sans-serif; font-size: 12px; font-weight: 200;" fill="rgb(33, 33, 33)" stroke="none" stroke-width="1px">2e-4</text><text x="0" y="273.45454545454544" dx="0em" dy="0.3em" style="text-anchor: end; visibility: inherit; font-family: Roboto, sans-serif; font-size: 12px; font-weight: 200;" fill="rgb(33, 33, 33)" stroke="none" stroke-width="1px">4e-4</text><text x="0" y="239.2727272727273" dx="0em" dy="0.3em" style="text-anchor: end; visibility: inherit; font-family: Roboto, sans-serif; font-size: 12px; font-weight: 200;" fill="rgb(33, 33, 33)" stroke="none" stroke-width="1px">6e-4</text><text x="0" y="205.09090909090907" dx="0em" dy="0.3em" style="text-anchor: end; visibility: inherit; font-family: Roboto, sans-serif; font-size: 12px; font-weight: 200;" fill="rgb(33, 33, 33)" stroke="none" stroke-width="1px">8e-4</text><text x="0" y="170.90909090909088" dx="0em" dy="0.3em" style="text-anchor: end; visibility: inherit; font-family: Roboto, sans-serif; font-size: 12px; font-weight: 200;" fill="rgb(33, 33, 33)" stroke="none" stroke-width="1px">1e-3</text><text x="0" y="136.72727272727272" dx="0em" dy="0.3em" style="text-anchor: end; visibility: inherit; font-family: Roboto, sans-serif; font-size: 12px; font-weight: 200;" fill="rgb(33, 33, 33)" stroke="none" stroke-width="1px">1.2e-3</text><text x="0" y="102.54545454545453" dx="0em" dy="0.3em" style="text-anchor: end; visibility: inherit; font-family: Roboto, sans-serif; font-size: 12px; font-weight: 200;" fill="rgb(33, 33, 33)" stroke="none" stroke-width="1px">1.4e-3</text><text x="0" y="68.36363636363635" dx="0em" dy="0.3em" style="text-anchor: end; visibility: inherit; font-family: Roboto, sans-serif; font-size: 12px; font-weight: 200;" fill="rgb(33, 33, 33)" stroke="none" stroke-width="1px">1.6e-3</text><text x="0" y="34.181818181818194" dx="0em" dy="0.3em" style="text-anchor: end; visibility: inherit; font-family: Roboto, sans-serif; font-size: 12px; font-weight: 200;" fill="rgb(33, 33, 33)" stroke="none" stroke-width="1px">1.8e-3</text><text x="0" y="0" dx="0em" dy="0.3em" style="text-anchor: end; visibility: hidden; font-family: Roboto, sans-serif; font-size: 12px; font-weight: 200;" fill="rgb(33, 33, 33)" stroke="none" stroke-width="1px">2e-3</text></g><line x1="74.78125" y1="0" x2="74.78125" y2="376" fill="rgb(0, 0, 0)" stroke="rgb(204, 204, 204)" stroke-width="1px"></line></g></g><g transform="translate(74, 0)" clip-path="url(#clip_0)"><clipPath id="clip_0"><rect width="1117" height="376"></rect></clipPath><g><g><g><line x1="0" y1="0" x2="0" y2="376" fill="rgb(0, 0, 0)" stroke="rgb(66, 66, 66)" stroke-width="1px" opacity="0.25"></line><line x1="93.1015625" y1="0" x2="93.1015625" y2="376" fill="rgb(0, 0, 0)" stroke="rgb(66, 66, 66)" stroke-width="1px" opacity="0.25"></line><line x1="186.203125" y1="0" x2="186.203125" y2="376" fill="rgb(0, 0, 0)" stroke="rgb(66, 66, 66)" stroke-width="1px" opacity="0.25"></line><line x1="279.3046875" y1="0" x2="279.3046875" y2="376" fill="rgb(0, 0, 0)" stroke="rgb(66, 66, 66)" stroke-width="1px" opacity="0.25"></line><line x1="372.40625" y1="0" x2="372.40625" y2="376" fill="rgb(0, 0, 0)" stroke="rgb(66, 66, 66)" stroke-width="1px" opacity="0.25"></line><line x1="465.5078125" y1="0" x2="465.5078125" y2="376" fill="rgb(0, 0, 0)" stroke="rgb(66, 66, 66)" stroke-width="1px" opacity="0.25"></line><line x1="558.609375" y1="0" x2="558.609375" y2="376" fill="rgb(0, 0, 0)" stroke="rgb(66, 66, 66)" stroke-width="1px" opacity="0.25"></line><line x1="651.7109375" y1="0" x2="651.7109375" y2="376" fill="rgb(0, 0, 0)" stroke="rgb(66, 66, 66)" stroke-width="1px" opacity="0.25"></line><line x1="744.8125" y1="0" x2="744.8125" y2="376" fill="rgb(0, 0, 0)" stroke="rgb(66, 66, 66)" stroke-width="1px" opacity="0.25"></line><line x1="837.9140625" y1="0" x2="837.9140625" y2="376" fill="rgb(0, 0, 0)" stroke="rgb(66, 66, 66)" stroke-width="1px" opacity="0.25"></line><line x1="931.015625" y1="0" x2="931.015625" y2="376" fill="rgb(0, 0, 0)" stroke="rgb(66, 66, 66)" stroke-width="1px" opacity="0.25"></line><line x1="1024.1171875" y1="0" x2="1024.1171875" y2="376" fill="rgb(0, 0, 0)" stroke="rgb(66, 66, 66)" stroke-width="1px" opacity="0.25"></line><line x1="1117.21875" y1="0" x2="1117.21875" y2="376" fill="rgb(0, 0, 0)" stroke="rgb(66, 66, 66)" stroke-width="1px" opacity="0.25"></line></g><g><line x1="0" y1="376" x2="1117.21875" y2="376" fill="rgb(0, 0, 0)" stroke="rgb(66, 66, 66)" stroke-width="1px" opacity="0.25"></line><line x1="0" y1="341.8181818181818" x2="1117.21875" y2="341.8181818181818" fill="rgb(0, 0, 0)" stroke="rgb(66, 66, 66)" stroke-width="1px" opacity="0.25"></line><line x1="0" y1="307.6363636363636" x2="1117.21875" y2="307.6363636363636" fill="rgb(0, 0, 0)" stroke="rgb(66, 66, 66)" stroke-width="1px" opacity="0.25"></line><line x1="0" y1="273.45454545454544" x2="1117.21875" y2="273.45454545454544" fill="rgb(0, 0, 0)" stroke="rgb(66, 66, 66)" stroke-width="1px" opacity="0.25"></line><line x1="0" y1="239.2727272727273" x2="1117.21875" y2="239.2727272727273" fill="rgb(0, 0, 0)" stroke="rgb(66, 66, 66)" stroke-width="1px" opacity="0.25"></line><line x1="0" y1="205.09090909090907" x2="1117.21875" y2="205.09090909090907" fill="rgb(0, 0, 0)" stroke="rgb(66, 66, 66)" stroke-width="1px" opacity="0.25"></line><line x1="0" y1="170.90909090909088" x2="1117.21875" y2="170.90909090909088" fill="rgb(0, 0, 0)" stroke="rgb(66, 66, 66)" stroke-width="1px" opacity="0.25"></line><line x1="0" y1="136.72727272727272" x2="1117.21875" y2="136.72727272727272" fill="rgb(0, 0, 0)" stroke="rgb(66, 66, 66)" stroke-width="1px" opacity="0.25"></line><line x1="0" y1="102.54545454545453" x2="1117.21875" y2="102.54545454545453" fill="rgb(0, 0, 0)" stroke="rgb(66, 66, 66)" stroke-width="1px" opacity="0.25"></line><line x1="0" y1="68.36363636363635" x2="1117.21875" y2="68.36363636363635" fill="rgb(0, 0, 0)" stroke="rgb(66, 66, 66)" stroke-width="1px" opacity="0.25"></line><line x1="0" y1="34.181818181818194" x2="1117.21875" y2="34.181818181818194" fill="rgb(0, 0, 0)" stroke="rgb(66, 66, 66)" stroke-width="1px" opacity="0.25"></line><line x1="0" y1="0" x2="1117.21875" y2="0" fill="rgb(0, 0, 0)" stroke="rgb(66, 66, 66)" stroke-width="1px" opacity="0.25"></line></g></g></g><g><g><line x1="0" y1="341.8181818181818" x2="1117.21875" y2="341.8181818181818" fill="rgb(0, 0, 0)" stroke="rgb(153, 153, 153)" stroke-width="1.5px"></line></g></g><g><g><line x1="93.1015625" y1="0" x2="93.1015625" y2="376" fill="rgb(0, 0, 0)" stroke="rgb(153, 153, 153)" stroke-width="1.5px"></line></g></g><g><g><g><g><g><path stroke="rgb(255, 112, 67)" stroke-width="2px" d="M128.0518890625,-1.662227192615049L128.7967015625,10.326865420111094L129.113246875,19.172990657245094L129.3553109375,25.745219655267675L131.01251875,37.9568158424523L132.1297375,50.25212075198383L133.8241859375,63.54649604978727L134.0476296875,72.03782613188257L134.6434796875,80.55618814783536L134.7552015625,85.99565573645235L135.220709375,88.91014586483294L136.0586234375,95.28254106047157L137.5854890625,102.94055477783188L138.46064375,110.20976246002391L138.7771890625,116.03463816324904L138.8144296875,119.5811510665744L138.90753125,122.2106798151343L139.3730390625,125.13952429593313L139.391659375,126.93956057212989L139.615103125,128.6080711875746L139.7082046875,129.85301236937414L140.24819374999998,131.9819278700404L140.5274984375,132.71220474360086L143.0971015625,139.99493614006832L144.12121875,146.00795699079296L148.3480296875,156.8637071750999L149.67007187500002,165.77260073465024L149.72593281250002,171.20861687083737L150.80591093750002,176.10192935697955L151.9603703125,178.84059990542042L153.24517187499998,183.68803186095084L153.50585625,187.20210275752416L153.543096875,189.30468778446794L153.5617171875,190.61581276261822L154.6416953125,192.88769308962293L157.90025,198.0827078875447L160.46985312500001,204.19048548068236L160.50709375,207.89648091513024L161.43810937499998,206.93528338882012L162.7601515625,211.61031293705892L163.72840781250002,215.36590681086545L164.119434375,217.9945298300365L164.2497765625,219.69624339817855L166.24214999999998,126.3560880515076L166.76351875,157.23914948701352L167.2848875,185.7582232531333L168.25314375000002,203.72530979901916L169.407603125,215.3899026332357L171.23239375,223.78672125989007L171.8096234375,229.26485794977268L171.902725,232.622503630901L173.4854515625,235.8369337242262L173.52269218749998,237.7936895283005L175.03093750000002,236.59568185433127L176.74400625,240.3343635353544L177.0605515625,242.790687258049L177.451578125,244.52842364325014L179.9467,245.88972680650124L180.02118124999998,247.5684382647014L180.17014375,248.77864858807274L182.25561875,250.91390410637996L182.51630312499998,252.34768298422077L183.22387500000002,253.6215096881187L183.44731875000002,254.51624277097068L184.229371875,255.51009581589315L185.6631359375,256.7000098768363L187.13414062500001,258.2601856057123L187.17138125,259.2159328054679L188.176878125,260.31623479306273L188.698246875,261.2471487910912L190.6533796875,262.4564400008051L192.6271328125,264.25823289073605L192.8878171875,265.4610489526733L194.02365625,266.7101473681644L196.4256765625,268.3150955011095L198.8463171875,270.361162732832L199.6656109375,154.76643058488128L201.24833750000002,203.02915232757164L201.62074375,232.139800910204L202.29107499999998,249.86152302315523L202.4214171875,260.54361095590895L203.0917484375,267.20396669646476L203.482775,271.34620605956104L204.63723437500002,256.861671789563L205.009640625,263.7899326824242L207.0764953125,270.36935202831046L207.2626984375,274.3754434500739L208.5475,277.1784098419176L208.7895640625,278.9348013151038L208.9012859375,280.023041117567L210.2047078125,281.0764186968674L210.632975,281.83927227512254L211.82467499999998,282.66088229296304L214.506,283.83028338343155L215.51149687499998,284.8138286924594L216.0514859375,285.5361060215997L217.0569828125,284.35904089525957L217.78317499999997,285.58512784639373L217.8390359375,286.38033801105513L218.06247968749997,286.97406916748713L218.63970937500002,279.3530503786388L220.725184375,283.42638001601597L222.810659375,286.31961745578735L223.29478749999998,288.17134126480096L225.41750312500002,289.5492583951557L225.566465625,290.450735710782L226.3298984375,291.28212002596774L228.0429671875,291.4222437245584L229.2346671875,291.94291739474534L230.12844218749999,292.93978488887916L230.556709375,293.629783151313L231.82289062499999,294.30804061370316L232.00909375,294.7480291451917L232.0649546875,295.01062553422L232.344259375,278.57351646464514L232.95872968749998,282.60341077781857L236.34762656249998,288.51040642314797L237.5951875,291.63233178346815L238.11655625,294.1518307083759L238.302759375,295.7010507638782L238.9544703125,296.76442811732034L241.8964796875,259.24518936170233L243.29300312499998,275.5275912853663L245.41571875000002,285.6291477422738L246.17915156249998,291.80345947200095L248.82323593750002,295.9023670274463L248.9163375,298.3756549836379L249.0839203125,299.884714179719L250.7597484375,298.65061620844114L250.815609375,293.0300350085983L251.336978125,296.7698984291444L251.52318125,299.1723303988058L253.25487031249997,300.8991134380171L253.8879609375,302.02327374074844L255.0051796875,302.8480099064688L258.412696875,303.73833904952966L258.89682500000004,304.33563211581395L258.9526859375,304.7012621964496L259.3437125,304.97130652119654L259.47405468750003,305.15018042392313L260.5540328125,298.43835520162344L260.6657546875,300.1014430295978L261.70849218750004,302.4324325998715L265.52565625,303.95951355174054L266.56839375,305.3046198703273L267.16424375,306.18222249894205L268.7842109375,305.2594500219416L269.39868125,298.8289769866467L270.8696859375,302.6583609947083L271.00002812500003,304.9721383528476L271.24209218749996,306.3891143312425L272.35931093749997,307.3614063406957L272.9179203125,307.9995385301435L273.3461875,200.99804252611278L273.681353125,230.9376769269019L276.3812984375,262.46370356031906L277.5729984375,267.62355483397033L280.384665625,284.8251151149943L280.86879375,295.18947525697115L284.44389375,301.7314362955155L284.57423593749996,305.6686661800684L286.67833125,308.1708482066426L286.7341921875,309.687988022544L287.12521875,310.6458741371799L288.2238171875,311.321152449438L289.024490625,311.61629015152715L290.6072171875,312.0330173957189L291.184446875,312.37873272244224L291.482371875,312.61319520718536L291.79891718749997,312.78164712901196L292.54372968750005,312.9469061769372L293.4002640625,312.93842785142004L293.418884375,312.8254802824576L293.82853125,300.25706102599725L294.4802421875,304.74736193707736L294.9643703125,308.2873071838794L295.131953125,310.4038370438768L296.100209375,311.7816782073034L296.1560703125,312.6131441226907L296.7891609375,313.164114533165L296.8636421875,313.50080200108823L297.291909375,313.7379565633778L297.40363125,313.8894305115228L297.44087187499997,313.9833779368584L298.29740625,294.6519689418193L299.82427187499997,302.5972581386186L300.1780578125,307.39325462989933L300.345640625,310.2853371306737L301.61182187500003,312.1211601348047L301.6490625,313.2255767238523L302.76628125,276.3240026640688L305.7269109375,292.0166939234774L306.7137875,301.5060180137927L307.08619375,307.22730134428423L307.6634234375,310.6565755386297L307.83100625000003,309.0681965986535L308.1475515625,305.0277625318202L308.464096875,308.43562921782336L309.99096249999997,311.5594205425679L310.4192296875,313.4656589631682L310.6799140625,314.62825388941656L312.0578171875,315.42365555252184L314.1805328125,316.00797021996084L315.9680828125,316.48711288319237L316.061184375,316.7809892166383L316.731515625,317.00194670378346L317.3087453125,317.16996570344594L319.11491562500004,317.38234438307535L319.59904375,317.5400261126835L319.67352500000004,317.6392988752393L319.97145,317.7175980125056L320.753503125,317.7275939981019L321.94520312500003,317.6670559150855L322.0010640625,317.6625186179195L322.29898906249997,317.8404817513255L324.08653906250004,318.06907954509506L325.073415625,318.0543557864156L329.0395421875,318.46549452481077L329.5609109375,278.59241462160867L331.53466406250004,294.91028105613555L332.8753265625,304.7767018848477L334.0297859375,308.37194224819274L335.4821703125,312.9760149299066L335.798715625,315.7558619522226L336.3014640625,317.45112677141964L336.692490625,318.4891271805082L336.915934375,319.12154834798633L337.19523906250004,318.66727070813056L338.256596875,319.269719570964L339.6158796875,319.7132189132129L341.6641140625,318.1359226004625L342.65099062499996,319.1301945140947L342.72547187500004,319.7669842782393L344.55026250000003,320.24292007484166L345.332315625,314.5136777790795L346.2819515625,317.04711874994507L346.71021875,318.69054024593487L347.80881718750004,319.7365087759615L347.864678125,320.3667953119743L349.6149875,319.6563565738052L350.248078125,320.3948695404763L350.8997890625,320.87730014080165L351.62598125,321.2080301773063L353.33905,319.2951170182181L353.748696875,309.4638896047282L355.2755625,314.50294671797633L357.9010265625,317.6353890865711L359.12996718750003,319.56593910667755L359.260309375,320.7297311880598L359.4278921875,321.43504231436015L359.7444375,321.8715546287014L360.07960312499995,322.1476223113919L361.17820156249996,321.91384394146166L362.1092171875,322.22001117925686L362.984371875,322.46312327710433L364.1574515625,322.6595443973103L365.553975,321.8757989882718L365.665696875,321.7268155289154L366.22430625,322.2818934254359L366.3918890625,322.60626481948316L366.5780921875,322.8256129579494L368.2911609375,323.0305874647531L368.45874375,323.15963660277856L368.8497703125,321.2645189142104L370.0414703125,322.10349227122424L370.39525625,322.66395020927644L372.9089984375,301.50613760055586L374.08207812499995,310.43118390281296L374.93861250000003,315.8252126796244L375.75790624999996,319.0930971553661L377.359253125,320.5711721178245L378.43923125,322.0246218541664L381.2136578125,306.694002505153L381.2508984375,311.1109993801797L381.84674843749997,315.77250293550713L382.423978125,319.23708671108824L383.5225765625,321.3910688859348L386.18528125,275.6179424635301L386.63216875,293.0397635380194L386.79975156250003,305.4560331271753L387.82386875000003,313.25859053981003L390.63553593750004,316.66916099709204L390.89622031249996,319.756811644928L392.79549218750003,321.98991143961916L393.18651875,323.34154254586826L395.6630203125,324.2274302994282L397.0036828125,324.80011574666355L397.41332968750004,324.2221698232454L397.729875,312.53205466201405L398.586409375,317.70536936966084L399.2195,320.9435576709651L400.4298203125,322.9260914212119L401.9194453125,324.1153649555433L403.33458906249996,324.90664057907895L404.00492031249996,325.4017903501347L406.071775,325.6029331280737L406.0903953125,325.77373791919007L406.72348593749996,325.9911072967645L406.9841703125,326.12951386081653L407.7662234375,326.23594058921105L410.87581562500003,326.3778687521019L411.4530453125,326.479402904395L412.0861359375,326.5579521362055L414.0971296875,326.5618004588634L414.7116,326.6652997456659L415.046765625,326.73989328524937L415.08400625,326.78556514250414L415.53089375,326.82525032730683L415.5495140625,326.84957576108025L415.605375,326.8656756893789L415.95916093750003,326.88485857843176L416.610871875,326.9138169895448L417.1881015625,322.17095957849085L417.91429375,323.10510404352254L418.100496875,324.42981882977983L419.7577046875,325.5149426836885L420.01838906250003,326.1728857434353L420.558378125,326.5817084118977L420.707340625,326.83037097713986L421.2473296875,285.57815898281774L423.09074062499997,302.2791214827532L427.3920328125,312.4002451287803L427.9134015625,318.4859266119684L428.080984375,322.1414346652774L428.602353125,324.3467420227753L429.2540640625,325.6843772193373L429.4775078125,326.4919349335345L430.6692078125,327.0031820207182L433.18295,324.3337769837218L434.188446875,325.7806764569176L436.66494843749996,326.6277686951437L436.68356874999995,327.09832824887764L439.2904125,327.5487252036604L441.5434703125,327.6583180534019L441.6738125,327.88564576291986L444.00135156249996,328.1165713547907L446.105446875,328.2768715257152L446.45923281250003,328.3969273524555L446.9806015625,328.48008146445005L447.39024843749996,328.5385846120921L447.781275,328.58190820578284L449.04745625,328.3450535196163L450.0343328125,328.4970150182447L451.11431093749997,328.61937709508464L451.9336046875,328.7094695448886L455.91835156250005,328.8368861617967L456.2535171875,328.4171533189711L456.6631640625,328.3048363816635L456.7748859375,328.14926968798505L458.8045,328.55266660051393L459.065184375,328.8000116251424L459.2700078125,328.95245910882704L460.29412499999995,327.42057532914174L460.4989484375,322.82398714105494L460.6106703125,322.4601416314365L461.70926875,325.18860903377254L462.2120171875,326.83712047553894L462.640284375,327.8346315955121L463.94370625,298.5316274750503L464.353353125,310.569751970516L464.96782343750004,318.1047122275564L465.41471093750005,322.634630337899L466.1595234375,325.37313671039567L466.49468906249996,327.0219726973419L466.6064109375,328.0131773836915L466.66227187500004,328.60885124518137L468.07741562499996,328.9904113286092L468.0960359375,329.21966920353145L468.971190625,329.37233427742876L469.5484203125,329.4739974369223L470.05116875000004,329.5438328324435L470.1070296875,329.5867204356117L470.20013125,329.6140959457831L471.5221734375,305.71721170231183L471.726996875,314.282976320561L472.6393921875,320.42173363086175L473.70074999999997,324.1724613110017L474.5386640625,326.43748897102853L475.302096875,304.46246585319597L475.54416093749995,309.35852298592124L475.56278125000006,313.8112291469834L475.97242812499996,319.94969603710234L476.270353125,323.88642838304503L478.33720781249997,326.32663939864887L478.728234375,327.7952790172931L480.0130359375,328.476994045593L480.068896875,329.10122739993074L480.08751718750005,329.42884266111207L480.9812921875,329.69139785312797L481.4281796875,329.85706463171L483.88606093749996,329.9750131520859L485.3756859375,330.08925697358796L485.61775,330.1618119010977L486.80944999999997,314.0714351618218L488.01977031250004,320.5542604614121L488.4480375,324.4799875908388L490.01214375,326.84451106860206L490.0680046875,328.2266888309141L490.16110625,328.72304304301304L491.40866718750004,329.36281463509874L491.7438328125,329.8101999493678L493.14035625,330.10908213707336L493.8665484375,307.4241047231191L496.8085578125,316.73113891439976L497.60923125,319.9263360629533L498.8195515625,324.21516881308753L498.9312734375,326.8014479037285L499.4154015625,328.39294008645965L499.806428125,329.35422215231796L499.91815,329.93296760542023L502.860159375,330.30864589067744L507.3104140625,330.60677632805744L507.552478125,330.7890220624174L508.18556874999996,330.907228888939L508.63245624999996,330.98445518121514L508.893140625,331.03432108188383L509.414509375,306.5883777257918L511.537225,316.42956739798285L512.1889359375,322.34330672245056L512.8778875,325.9009857048828L514.5723359375,328.0275852759325L516.9929765625,329.36387598911375L518.3895,330.0725226574257L520.0653281250001,330.62812160485277L520.1211890625,330.9621892864599L522.858375,331.1813999452159L522.93285625,331.32743880148706L523.7335296875,331.4256547295079L523.9383531249999,331.48736705171535L524.1245562500001,331.52676236972707L524.757646875,331.5529196929629L524.94385,331.3175513962854L525.427978125,327.781841114709L526.2658921875001,329.30767529775864L526.694159375,330.24718707624993L527.6437953125,330.8245167362253L528.0906828125001,331.1764653893782L528.4444687499999,331.3738543091275L529.3196234375,330.6336193754281L531.42371875,331.1004855213433L532.3361140625,321.475682936983L533.844359375,325.6311774186072L534.0491828125,328.1247235591583L534.4215890625,329.627936862052L535.780871875,330.54613664723166L536.8422296875,327.3556867662954L538.8346031250001,329.2159397737476L541.4600671875,330.36279799787076L542.186259375,331.0589796939484L542.7262484375,331.4827469279016L544.346215625,317.9126973473814L545.239990625,323.51152614370716L545.27723125,326.9395312893668L545.984803125,329.0446033811966L546.4130703124999,330.3124672942308L547.7351125,331.0880338554402L550.3605765625,331.57893922124845L551.5522765625,331.88789044545763L553.3770671875001,331.9444001659715L553.5260296875,332.12494621952953L556.3563171875,323.9988514411647L556.7659640625,325.68103627473215L557.380434375,328.3873180019458L558.7583375,330.0462830888946L559.4845296875001,331.0493692745721L561.0858765625,331.6112095002363L562.445159375,332.0161323814786L562.9106671875,332.2644564072275L563.15273125,332.4159391208068L563.3203140625,332.5085343710009L564.79131875,328.93927783173274L565.8899171874999,330.411740049999L568.0126328125,331.3503409565832L568.2919375,331.9162773021757L569.7629421875,331.5831283940344L571.3829093749999,332.0841134196725L573.0401171875001,329.72464136083096L573.7290687499999,330.3174865106681L574.3807796875,331.33784203116164L575.7586828125,331.9774497524952L578.0676015624999,332.3801087878173L578.458628125,332.62725929417104L578.6262109375,332.77769045458524L578.9241359375,332.8707816573208L580.097215625,332.9373685169835L580.1158359375,332.9774962188361L580.3765203124999,333.0039822984467L582.66681875,333.03388327608445L582.8716421875,333.0591554509303L584.7336734375,331.7906508906285L585.981234375,332.3280995492209L589.705296875,332.6921794062281L592.0700765625,332.75858621140765L592.088696875,332.70664728534217L592.6286859375,332.9058995904215L592.6659265625,331.87028872216865L594.5093375,332.46000711878565L597.302384375,332.83085483305274L598.4940843749999,333.06907567777085L598.6058062500001,333.21292317199L598.7175281250001,333.3000538887731L598.792009375,333.35265115924307L598.8106296875001,333.38421648527793L600.9519656250001,333.4191372450701L601.9760828125001,333.4500615463748L604.2105203125,333.48038785400297L605.2532578124999,333.5120261687073L607.0780484375,330.6776375259641L607.2642515625,331.828344296979L607.39459375,332.3990131985932L607.7297593750001,332.87343635126774L608.7911171875,333.1748452810252L609.6104109375,333.3624370231949L611.2117578125001,332.2263043775684L612.90620625,332.8178778655477L612.943446875,333.17315323400834L613.539296875,333.3910309261459L613.8744624999999,333.5243977985946L619.1440109375001,333.43508506850304L619.6281390624999,333.54480713517216L620.4474328125,333.6644517807897L621.47155,333.74393699697725L622.626009375,333.78431021722696L622.8680734375,333.77155711895523L624.5811421875001,333.83026286125687L625.12113125,333.8345259587111L625.8473234375,333.1161951234513L631.0610109375,333.4814234227572L632.5320156250001,333.7107608080881L633.01614375,328.32148500854726L633.425790625,330.49608542056217L633.7795765625,331.9266341745266L634.245084375,332.774690150458L634.543009375,333.29732937611624L634.766453125,333.6147899809313L635.5671265625,333.8114571201373L636.8333078124999,332.647029335171L637.9877671874999,333.2346484548569L641.8607921875,333.5745700208429L641.991134375,333.80224647687834L642.1587171875,333.96055364284615L643.0897328125,334.0682368432281L643.14559375,334.1332693140342L643.5366203125,334.17494770659357L644.11385,334.2009008177001L644.4676359375,326.7942521721553L646.9999984374999,329.7935931190936L648.50824375,328.2383062722485L648.5268640625001,328.9672173353648L649.1599546875,331.103974600873L651.7109375,332.23190021751964L651.8040390625,333.0013170243665L652.2881671875,333.55142318470575L653.1447015625,333.8868139031628L653.4240062499999,334.0897880289316L654.9508718750001,334.22121058709456L655.7515453125,332.68905485538386L656.2356734375,332.8437815216022L656.99910625,333.48128446896084L657.7997796875,333.8733365270502L660.2576609375,334.1026876187068L660.388003125,334.2398978579097L660.4624843749999,334.3356078370702L662.36175625,334.41346099884004L663.1065687500001,334.44988668677087L664.856878125,334.495623295235L665.1175625000001,334.52548790020194L665.452728125,334.54547688743344L666.2347812500001,334.56224069920563L671.29950625,333.99356262375585L672.2863828125,334.26265410743423L674.5022,333.4035896648927L677.891096875,332.2985539181102L678.5800484375001,333.27887469001115L680.3303578125,333.8823314507756L683.2909875,334.256290892475L683.775115625,334.48761165747254L684.519928125,334.6309295610261L685.3764625,330.3459360151834L686.5867828125,332.1489267966744L686.717125,333.23770864547515L686.8660875,333.8930139063589L687.7598625,334.29167082136405L687.9274453125,334.53182845532024L689.02604375,334.6789967864774L689.2681078125,334.759681677862L691.968053125,334.83430194021196L692.1914968750001,334.8801529819086L692.8059671875,329.4639348240127L693.5880203125,331.6610927637672L694.798340625,332.98974387169085L696.17624375,326.69485584911826L697.0513984375,329.98043735872324L698.26171875,331.9989022704064L698.8017078124999,333.21289654282157L699.0437718750001,333.9425505610778L700.3285734375,334.0288094931013L700.3844343750001,334.3507716457384L701.1851078125001,334.634964690149L702.097503125,334.81112787168155L703.1402406249999,334.9173057821394L705.5981218750001,334.99782849940465L705.7470843750001,335.0469449509895L705.8774265625,335.0770609587262L707.609115625,334.99108140089464L707.832559375,335.0116941048384L708.204965625,335.0568279254785L710.3276812500001,335.10498998490743L710.4021625,335.13421625788874L710.9049109375,332.4053627847837L710.9421515624999,327.95809583025914L712.6179796875,330.85575266656593L713.9214015625,332.60180569380884L714.4241499999999,333.6518511966465L714.5544921874999,334.2808127954518L715.0758609375,331.76501206813725L717.6082234375,333.1649438159706L719.3212921875,333.31133098387227L719.451634375,333.85057787120843L721.1274625,334.43282867726305L721.2950453125,334.78299217904544L721.5184890625001,334.9941736410998L721.8722750000001,335.12262171561605L722.1888203125,335.20116811946525L723.1943171875,335.2422613724869L723.4177609374999,335.262206096766L723.8832687500001,335.28356056763675L724.5722203125,335.3082064072532L725.6521984374999,335.32851193907L726.5087328124999,335.3446882243246L726.8625187499999,335.35595835282254L726.9928609375,335.3632971778836L727.8493953125,335.3715153659753L728.8176515625,335.38083941208043L728.8735125,335.38668975766217L729.5252234375,335.3932048243821L731.9458640625,335.40517838766874L732.9141203125,335.4193842269003L732.9327406250001,335.4280014923979L733.3237671875,335.43500928763683L734.347884375,329.94095849934655L735.9678515625,332.1545380579746L735.9864718749999,333.48270544088285L736.69404375,334.2828738603757L737.3457546875001,334.7659456987942L737.5133375,335.0565411358627L738.2395296875,334.2025950818598L739.151925,334.7058241550315L740.1760421875,335.0314607422434L740.7718921875,335.2297530458665L742.540821875,335.2330284095753L745.3711093750001,335.3705736685266L746.2835046875,335.4531033109521L746.9538359375,335.5067411510621L748.1082953125,335.5464750503127L749.542059375,335.36419825261254L749.5979203125,335.3163081844829L751.0130640625,335.444231474678L751.404090625,335.5228890403879L751.5530531249999,335.5706289908883L751.7951171875001,335.59727610504797L751.8323578125,335.6108340237861L751.9440796875,335.5840622175641L753.7688703125,335.615732675409L753.8061109375,335.6350214588062L755.426078125,334.5060036330501L755.4819390625,334.9699117455676L755.9846875,335.197712699799L759.1687609375,335.3638981959111L759.299103125,335.48125365375154L760.5280437499999,335.5827824685897L760.6211453125,335.6441307640553L762.5576578125,335.02555509172737L762.874203125,335.1679988990542L764.1217640624999,335.40909610708866L764.4941703125,335.55525860253294L766.48654375,335.6505861346151L767.4548,335.7115888422283L767.7341046875,335.7493041698473L768.013409375,335.7730508000517L768.311334375,335.788502512602L768.5533984374999,335.7987467245982L769.205109375,335.8074171148067L769.5588953125,335.746353519982L769.6892375,334.824026224102L774.0277703124999,335.2346238997241L775.1449890624999,335.4925244280974L775.7035984375,335.63947777716044L776.057384375,332.3925637822131L777.7145921875001,333.79730198553756L778.440784375,334.64271229399856L778.515265625,335.14983313152317L778.6828484375,335.44775295046634L778.7945703125,335.5824210528836L779.2600781250001,335.26503253458503L780.3214359375,335.5276032380921L783.0400015624999,335.69793832295613L785.1999578125,335.5807127639178L785.8144281250001,335.7326489802115L787.8440421875,335.62861223985374L787.9557640625001,335.3762197629855L788.123346875,335.5464666342208L790.5253671875,334.72197352818387L791.1584578124999,335.2400829000492L795.9252578125,335.57319025248L796.27904375,335.77524948962537L797.0797171875,335.89941154906353L798.36451875,335.840512129236L802.3678859375,335.9571827468872L804.2485375,336.0337307964867L805.2726546875,335.20724688214113L805.5519593749999,335.4188974539191L806.8367609375,335.71964412586294L807.4698515625,335.90208450847143L808.8477546875,335.97936873853257L809.1456796875,336.05786953498114L809.350503125,336.1090027718885L809.98359375,336.14448994187444L811.4732187500001,336.1652507602974L812.6090578125,336.1870506180825L812.6276781250001,336.2000982010437L813.70765625,336.2084992707899L814.0800625,333.6314114301479L814.8807359375,334.6634882323469L814.9738375000001,335.27303504942137L816.3145000000001,335.6644350146857L818.9399640624999,335.9078555809289L819.36823125,336.0554120912986L819.3868515625,336.14401165576186L821.9192140625,336.2036071456352L823.7067640624999,336.2470964436134L824.8053625,333.2548050537077L825.0101859375001,333.3659130136207L830.2983546875,334.56552144116506L831.0617875,335.2876534275571L832.365209375,335.6891129941003L832.886578125,335.96421160018076L833.8362140625,336.1356940797514L835.642384375,336.23780636293037L836.2196140624999,336.3070611573997L836.312715625,336.34896868806766L836.6292609375,336.37524208055254L837.578896875,333.81893627718875L838.2864687499999,334.8235710443129L842.0850125000001,335.4761101573175L843.4256750000001,335.8716420110234L845.3808078125,336.103993729089L847.000775,336.259064996645L847.22421875,336.35158298865736L847.82006875,335.6146885915056L848.3414375,335.9203423704675L849.9614046875,336.15761568098947L850.1476078125,336.3005076689949L850.2593296875,336.386506489586L850.3338109375,336.43809533631133L850.911040625,335.9131305104019L850.94828125,336.1293330063118L851.208965625,336.2689892921736L851.3206875,336.28962157629593L852.6799703125,336.38698235901506L857.2791874999999,336.29694181400964L858.917775,336.4095516376178L859.401903125,336.4645606417994L861.07773125,336.5163271407035L861.5804796875,336.5488285368936L862.8839015625,336.2432449752605L864.1500828124999,336.3920065347604L864.4480078125,336.48219313147086L865.6769484375001,336.3987987006285L866.5707234375,336.48815125567864L866.8686484375,336.5456852468753L867.4086374999999,336.58274330775714L867.8741453125001,336.6063541072452L868.22793125,336.62154376120156L870.90925625,336.6379324369936L871.0582187499999,336.648185830344L872.2499187499999,336.6577315767123L872.7526671875,336.66489492550807L875.266409375,336.67600224158224L875.3967515625,336.6829482901605L875.7319171875,336.6880374973904L877.649809375,336.69604448838055L878.096696875,336.7020376194274L878.2829,336.7061358830852L878.543584375,336.70929892643795L879.69804375,336.7143386485292L881.4669734375001,336.663495241792L882.6959140625,336.6949082770177L883.533828125,336.6424677867859L883.8689937500001,336.47511306750636L884.055196875,336.3435506231566L884.4462234375,336.50755076413157L886.4758375,335.39781644837575L887.7792593749999,335.94785233588846L889.60405,336.17252248413257L891.7826265625,336.1741261358405L892.4901984375,336.40793446169425L893.10466875,336.568534216612L893.4212140625,336.6657927667434L894.14740625,336.7263264323014L898.653521875,336.7741497565844L898.951446875,336.8037795054485L901.632771875,336.81783199567764L902.601028125,336.8392155727749L903.420321875,336.854084357691L904.0720328125001,336.6280538290323L904.6306421874999,336.65304290738254L905.0775296875,336.7372116641694L905.5244171875,336.79793894065136L905.6733796875,336.8343309126159L905.8782031249999,336.85707772565917L905.8968234375,336.8707864976175L907.0140421875,336.52575525043346L907.516790625,336.67175214124376L907.591271875,336.63339550937434L907.8705765625,336.71659542505233L908.3547046875001,336.79167292658695L908.559528125,336.8379648201L908.7643515625,336.86667123380386L909.378821875,336.8853588380125L910.9615484375,336.8984406707771L911.948425,336.91073388830534L912.02290625,336.91833837914027L912.2649703125,336.9235602674637L913.7545953125,336.93016495562483L913.8290765625,336.9343024841074L914.331825,336.9379617510822L914.4994078125,336.9405583488217L916.119375,336.9459431383825L916.2497171875001,336.9495493086586L917.0690109374999,336.94732758744334L918.0558874999999,336.95038768796434L918.7075984375,336.9578808026762L918.7820796875001,336.96270707670726L919.91791875,336.9681194916783L921.7240890625,336.9746474900346L922.4316609374999,336.9813623498291L923.2881953125001,336.9853609236397L923.306815625,336.9868213291662L923.3626765625,336.9809646182618L924.4054140625,336.96704786407986L925.9695203125,336.98512836259687L926.4164078125001,336.9970174940583L927.3288031249999,336.4577348798055L927.5894875,336.570599497508L930.34529375,336.6648531510963L930.903903125,336.762474573314L932.0025015625,336.87593821395825L932.9521374999999,336.9466959509737L936.787921875,335.83624447346534L936.9555046875,335.97206535958605L937.9051406250001,336.414674364631L937.94238125,336.6814518337186L940.4561234375,336.8393494792049L941.1264546875001,336.94303524542977L941.9457484374999,337.00754437055934L943.044346875,337.0453283919068L943.2677906250001,336.9754691817504L945.3718859375,337.0346580211278L946.0608375,336.6782738200918L946.6380671875,336.8508985068984L947.289778125,336.96279637156283L950.0828250000001,337.03731679277496L950.2504078125,337.08181864068285L950.75315625,337.11016568216365L951.311765625,337.1284355898521L951.9448562499999,337.1407014971933L952.7827703125,337.14980807310366L952.9317328125,337.15558314918064L953.4531015625,337.16015170095403L955.5571968749999,337.1674563285086L955.855121875,337.17199952006314L957.00958125,337.1723864844948L957.3261265625,337.17436059619746L958.9274734375,337.1832354091087L959.0950562500001,337.18890214251064L959.728146875,335.94206331566784L961.8694828125,336.45012528885877L962.595675,336.7564227468833L963.5639312500001,336.8363675625058L968.9265812499999,337.00154858918654L969.3176078125,337.0756785966459L971.943071875,337.151456680707L972.7437453125,336.12985039116774L973.730621875,336.58762505414074L973.8609640625,336.86150978724845L974.2333703125,337.0273328598746L974.7174984374999,337.1282087596931L976.3933265625,337.1913025565196L977.3615828125,337.231918719108L978.4788015625,337.2569830510117L978.60914375,337.25573268603364L979.1491328124999,337.07968304514156L980.136009375,337.1705578074649L980.2104906249999,337.2247664358661L980.4525546875001,337.25809766730356L980.7132390625001,337.2788195172918L981.1601265625,337.2922198428197L981.3835703125,337.30063235021044L981.9794203125,336.7943558532534L982.1097625,336.65582389394933L982.370446875,336.8420493743119L984.4745421875,337.03684420333104L984.679365625,337.15411629371886L984.7910875,337.22463760027154L985.5545203125,336.9486361205426L985.6290015625,337.08226259581767L985.8896859375,337.1573504646765L986.317953125,337.2250872379646L988.2917062500001,337.27399987766586L989.0923796874999,337.3048358393136L989.9116734375,337.32489008449073L990.2468390624999,337.33756379427354L990.5447640625,337.34574588728015L991.1033734375,337.351737136189L992.3881749999999,337.35680869855736L994.7157140625,337.3653789904801L995.5163875000001,337.3720965903718L995.553628125,337.37614592756904L996.2425796875001,337.3658821006063L996.2612,337.3449965862463L996.447403125,337.2619625024593L996.596365625,337.3067114329844L997.0618734374999,337.3359012340333L998.607359375,337.3603475306621L998.7004609375,337.37520681184384L998.979765625,337.38464279672843L1002.59210625,337.3968340251658L1005.1617093750001,337.40932768038004L1009.109215625,337.4242253480062L1010.5616,337.43425899872335L1011.567096875,337.4436579771841L1012.0326046875,337.4502006624923L1014.3787640625001,337.45577009241686L1015.887009375,337.46456561240973L1016.7994046875,337.4139226208391L1017.0228484375,337.2586605707695L1017.376634375,337.3180495705424L1018.4752328124999,337.3865857079776L1020.6351890625,337.3725700116612L1022.1061937500001,337.42585148587955L1022.8882468749999,337.4578545674114L1024.228909375,337.47940941869007L1025.159925,337.4952822767031L1025.8488765625,337.5059325028932L1026.8916140625,337.5140543747271L1027.1895390625,337.51942776886074L1027.7481484375,337.5236024819628L1028.6046828125,337.5275844959053L1029.10743125,337.5308573547711L1031.230146875,337.51428430602056L1031.5653125000001,337.5271431612475" style="fill: none;" fill="none"></path></g></g></g></g><g opacity="0.2"><g><g><g><path stroke="rgb(255, 112, 67)" stroke-width="2px" d="M127.43741874999999,-33.635937503792974L127.847065625,15.596999553116913L128.0518890625,17.485808093439474L128.7967015625,28.310504338958044L129.113246875,32.442178512838765L129.3553109375,35.60356315225363L131.01251875,56.27421012317591L132.1297375,68.69507811624898L133.8241859375,83.48805899647148L134.0476296875,84.77482125501743L134.6434796875,93.33373117175968L134.7552015625,94.154857119376L135.220709375,93.28188105740331L136.0586234375,104.8411338539286L137.5854890625,114.42757535387167L138.46064375,121.11357398331165L138.7771890625,124.77195171808654L138.8144296875,124.90092042156242L138.90753125,126.15497293797405L139.3730390625,129.53279101713136L139.391659375,129.6396149864251L139.615103125,131.11083711074158L139.7082046875,131.72042414207348L140.24819374999998,135.17530112103984L140.5274984375,133.80762005394155L143.0971015625,150.91903323476964L144.12121875,155.02748826687986L148.3480296875,173.1473324515603L149.67007187500002,179.13594107397577L149.72593281250002,179.36264107511803L150.80591093750002,183.4418980861929L151.9603703125,182.94860572808167L153.24517187499998,190.9591797942465L153.50585625,192.47320910238406L153.543096875,192.45856532488358L153.5617171875,192.58250022984365L154.6416953125,196.2955135801299L157.90025,205.8752300844274L160.46985312500001,213.3521518703889L160.50709375,213.45547406680208L161.43810937499998,205.4934870993549L162.7601515625,218.62285725941715L163.72840781250002,220.9992976215753L164.119434375,221.93746435879305L164.2497765625,222.24881375039166L166.24214999999998,-13.654144968498814L166.76351875,203.56374164027244L167.2848875,228.53683390231296L168.25314375000002,230.67593961784786L169.407603125,232.8867918845605L171.23239375,236.38194919987157L171.8096234375,237.4820629845966L171.902725,237.65897215259344L173.4854515625,240.65857886421412L173.52269218749998,240.72882323441178L175.03093750000002,234.7986703433774L176.74400625,245.9423860568892L177.0605515625,246.47517284209079L177.451578125,247.1350282210518L179.9467,247.9316815513779L180.02118124999998,250.08650545200166L180.17014375,250.5939640731297L182.25561875,254.11678738384083L182.51630312499998,254.49835130098194L183.22387500000002,255.53224974396556L183.44731875000002,255.8583423952487L184.229371875,257.0008753832769L185.6631359375,258.48488096825105L187.13414062500001,260.6004491990263L187.17138125,260.64955360510135L188.176878125,261.966687774455L188.698246875,262.6435197881338L190.6533796875,264.270376815376L192.6271328125,266.9609222256325L192.8878171875,267.2652730455792L194.02365625,268.58379499140113L196.4256765625,270.72251770052725L198.8463171875,273.4302635804158L199.6656109375,-18.625667637044764L201.24833750000002,275.4232349416072L201.62074375,275.8057737841525L202.29107499999998,276.44410619258207L202.4214171875,276.56674285503954L203.0917484375,277.19450030729854L203.482775,277.55956510420555L204.63723437500002,235.1348703845658L205.009640625,274.18232402171606L207.0764953125,280.23848104713994L207.2626984375,280.38458058271897L208.5475,281.3828594296832L208.7895640625,281.5693885248832L208.9012859375,281.6554008212618L210.2047078125,282.65648506581783L210.632975,282.9835526425053L211.82467499999998,283.8932973197238L214.506,285.5843850191344L215.51149687499998,286.2891466560012L216.0514859375,286.61952201531017L217.0569828125,282.59344320574945L217.78317499999997,287.4242582730949L217.8390359375,287.57315325804734L218.06247968749997,287.8646659021351L218.63970937500002,267.9215221953663L220.725184375,289.53637447208166L222.810659375,290.65947361544454L223.29478749999998,290.94892697832125L225.41750312500002,291.61613409068775L225.566465625,291.8029516842216L226.3298984375,292.5291964987463L228.0429671875,291.6324292724444L229.2346671875,292.72392790002584L230.12844218749999,294.4350861300799L230.556709375,294.6647805449638L231.82289062499999,295.32542680728847L232.00909375,295.40801194242454L232.0649546875,295.4045201177624L232.344259375,253.91785286028278L232.95872968749998,288.64825224757874L236.34762656249998,297.3708998911422L237.5951875,296.3152198239484L238.11655625,297.9310790957375L238.302759375,298.02488084713167L238.9544703125,298.35949414748364L241.8964796875,202.96633122827518L243.29300312499998,299.95119417086244L245.41571875000002,300.78148242763496L246.17915156249998,301.0649270665917L248.82323593750002,302.0507283606143L248.9163375,302.0855869179253L249.0839203125,302.14830297384077L250.7597484375,296.79946925152433L250.815609375,284.59916320883417L251.336978125,302.37969355996364L251.52318125,302.77597835329783L253.25487031249997,303.489287996834L253.8879609375,303.7095141948455L255.0051796875,304.0851141550493L258.412696875,305.073832764121L258.89682500000004,305.2315717152405L258.9526859375,305.2497073174031L259.3437125,305.3763730083169L259.47405468750003,305.41849127801305L260.5540328125,288.3706173681739L260.6657546875,302.59607477155936L261.70849218750004,305.9289169552821L265.52565625,306.25013497954404L266.56839375,307.3222793482075L267.16424375,307.49862644186413L268.7842109375,303.87529130644083L269.39868125,289.1832674337043L270.8696859375,308.4024370068007L271.00002812500003,308.44280439005655L271.24209218749996,308.5145782988349L272.35931093749997,308.8198443548754L272.9179203125,308.9567368143153L273.3461875,40.495798520066515L273.681353125,275.84712852808565L276.3812984375,309.75274351044476L277.5729984375,275.36333174444735L280.384665625,310.6274555365301L280.86879375,310.7360154699365L284.44389375,311.5443778533319L284.57423593749996,311.5745110068978L286.67833125,311.9241212465039L286.7341921875,311.96369774639606L287.12521875,312.08270330913365L288.2238171875,312.33406991782516L289.024490625,312.058996704661L290.6072171875,312.6581082620066L291.184446875,312.89730571252716L291.482371875,312.9648889343L291.79891718749997,313.0343250117519L292.54372968750005,313.19479474882513L293.4002640625,312.9257103631443L293.418884375,312.6560589290139L293.82853125,281.4044321413067L294.4802421875,311.4828133036975L294.9643703125,313.59722505408257L295.131953125,313.57863183387303L296.100209375,313.84843995244324L296.1560703125,313.86034299577165L296.7891609375,313.99057014887643L296.8636421875,314.005833202973L297.291909375,314.09368840681225L297.40363125,314.11664143374026L297.44087187499997,314.1242990748618L298.29740625,265.65485544926065L299.82427187499997,314.5151919338175L300.1780578125,314.5872493668205L300.345640625,314.62346088183534L301.61182187500003,314.87489464100116L301.6490625,314.8822016074237L302.76628125,220.97164157439363L305.7269109375,315.55573081259024L306.7137875,315.7400041492656L307.08619375,315.8092263400216L307.6634234375,315.8004868301478L307.83100625000003,306.68562818868935L308.1475515625,298.96711143157023L308.464096875,313.54742924682796L309.99096249999997,316.2451075296849L310.4192296875,316.3250165940686L310.6799140625,316.3721462787891L312.0578171875,316.61675804717976L314.1805328125,316.88444222111934L315.9680828125,317.20582687803966L316.061184375,317.2218037168072L316.731515625,317.33338293450123L317.3087453125,317.42199420293963L319.11491562500004,317.70091240251946L319.59904375,317.77654870709574L319.67352500000004,317.788208019073L319.97145,317.83504671840507L320.753503125,317.74258797649634L321.94520312500003,317.5762487905608L322.0010640625,317.65571267217064L322.29898906249997,318.1074264514345L324.08653906250004,318.4119762357494L325.073415625,318.0322701483965L329.0395421875,319.0822026324035L329.5609109375,218.78279476680538L331.53466406250004,319.387080707926L332.8753265625,319.57633312791586L334.0297859375,313.7648027932102L335.4821703125,319.8821239524775L335.798715625,319.92563248569655L336.3014640625,319.99402400021523L336.692490625,320.04612779414117L336.915934375,320.0701800992035L337.19523906250004,317.985854248347L338.256596875,320.17339286521417L339.6158796875,320.37846792658627L341.6641140625,315.7699781313369L342.65099062499996,320.6216023845429L342.72547187500004,320.7221689244563L344.55026250000003,320.95682376974514L345.332315625,305.9198143354363L346.2819515625,320.8472802062434L346.71021875,321.1556724899194L347.80881718750004,321.30546157100156L347.864678125,321.3122251159935L349.6149875,318.5906984665516L350.248078125,321.5026389904828L350.8997890625,321.6009460412897L351.62598125,321.70412523206323L353.33905,316.4257472795858L353.748696875,294.71704848449343L355.2755625,322.0615323878486L357.9010265625,322.3340526394631L359.12996718750003,322.4617641368373L359.260309375,322.47541931013325L359.4278921875,322.4930090038106L359.7444375,322.52632310021335L360.07960312499995,322.5617238354277L361.17820156249996,321.56317638656634L362.1092171875,322.67926203594965L362.984371875,322.8277914238755L364.1574515625,322.9541760776192L365.553975,320.70018087471414L365.665696875,321.5033403398808L366.22430625,323.1145102702166L366.3918890625,323.09282191055405L366.5780921875,323.15463516564876L368.2911609375,323.33804922495887L368.45874375,323.35321030981675L368.8497703125,318.42184238135815L370.0414703125,323.3619523067451L370.39525625,323.5046371163546L372.9089984375,269.769418687475L374.08207812499995,323.81875335619867L374.93861250000003,323.9162558448416L375.75790624999996,323.9949238689786L377.359253125,322.78828456151217L378.43923125,324.20479645867914L381.2136578125,283.6980734816329L381.2508984375,317.7364946927198L381.84674843749997,322.76475826849827L382.423978125,324.43396237445995L383.5225765625,324.62204214820474L386.18528125,206.95825282992288L386.63216875,319.17249514975333L386.79975156250003,324.08043751090935L387.82386875000003,324.9624266587621L390.63553593750004,321.78501668301493L390.89622031249996,324.38828761668196L392.79549218750003,325.33956113165584L393.18651875,325.36898920524186L395.6630203125,325.556261929768L397.0036828125,325.65914391751653L397.41332968750004,323.35525093811816L397.729875,294.99688192016697L398.586409375,325.4653414311311L399.2195,325.8008401229216L400.4298203125,325.89989204658195L401.9194453125,325.8992752570405L403.33458906249996,326.0935540143824L404.00492031249996,326.14451500671834L406.071775,325.9046472949822L406.0903953125,326.02994510586456L406.72348593749996,326.3171613631262L406.9841703125,326.3371237068945L407.7662234375,326.3955806818029L410.87581562500003,326.59076099643823L411.4530453125,326.63170413283467L412.0861359375,326.67577598392114L414.0971296875,326.5675729428503L414.7116,326.8205486758697L415.046765625,326.8517835946246L415.08400625,326.8540729283863L415.53089375,326.8847781045108L415.5495140625,326.8860639117404L415.605375,326.8898255818269L415.95916093750003,326.913632912011L416.610871875,326.95725460621446L417.1881015625,315.05667346191L417.91429375,324.50632074106994L418.100496875,326.4168910091658L419.7577046875,327.1426284645515L420.01838906250003,327.15980033305556L420.558378125,327.1949424145913L420.707340625,327.20336482500323L421.2473296875,223.69984099133447L423.09074062499997,327.33056523265657L427.3920328125,327.58193059782076L427.9134015625,327.6144488367506L428.080984375,327.6246967452409L428.602353125,327.65470305902204L429.2540640625,327.6908300141804L429.4775078125,327.70327150483024L430.6692078125,327.7700526514937L433.18295,320.3296694282273L434.188446875,327.95102566671136L436.66494843749996,327.89840705248275L436.68356874999995,327.8041675794785L439.2904125,328.22432063583454L441.5434703125,327.8227073280141L441.6738125,328.2266373271969L444.00135156249996,328.46295974259687L446.105446875,328.517321782102L446.45923281250003,328.57701109256595L446.9806015625,328.6048126324419L447.39024843749996,328.6263393335552L447.781275,328.646893596319L449.04745625,327.9897714903663L450.0343328125,328.7249572661875L451.11431093749997,328.80292021034455L451.9336046875,328.8446082195944L455.91835156250005,329.02801108715886L456.2535171875,327.7875540547327L456.6631640625,328.136360975702L456.7748859375,327.91591964746743L458.8045,329.1577619693073L459.065184375,329.1710291620852L459.2700078125,329.1811303343539L460.29412499999995,325.1227496596138L460.4989484375,315.92910485892475L460.6106703125,321.91437336700886L461.70926875,329.28131013727665L462.2120171875,329.30988763818857L462.640284375,329.3308982754719L463.94370625,254.5771212943576L464.353353125,328.6269387137145L464.96782343750004,329.4071526131169L465.41471093750005,329.42950750341305L466.1595234375,329.4808962691406L466.49468906249996,329.49522667776114L466.6064109375,329.49998441321605L466.66227187500004,329.5023620374162L468.07741562499996,329.5627514537509L468.0960359375,329.5635560159148L468.971190625,329.60133188827473L469.5484203125,329.62649217616257L470.05116875000004,329.6485859257254L470.1070296875,329.6510518403639L470.20013125,329.6551592110402L471.5221734375,269.87188533710486L471.726996875,327.1316232479347L472.6393921875,329.62986959631303L473.70074999999997,329.79855283121157L474.5386640625,329.83503046106887L475.302096875,271.4999311764471L475.54416093749995,316.7026086850092L475.56278125000006,320.49028838857674L475.97242812499996,329.1573963722807L476.270353125,329.791526901959L478.33720781249997,329.9869559220546L478.728234375,329.99823844525963L480.0130359375,329.4995665880428L480.068896875,330.0375774314373L480.08751718750005,329.92026555288413L480.9812921875,330.08523064115167L481.4281796875,330.1055647995831L483.88606093749996,330.1519359326498L485.3756859375,330.26062270584094L485.61775,330.2706442923624L486.80944999999997,289.935870052908L488.01977031250004,330.27849841079757L488.4480375,330.36857828497887L490.01214375,330.39129628524694L490.0680046875,330.2999554743821L490.16110625,329.46757436116144L491.40866718750004,330.32247202322736L491.7438328125,330.4812779207714L493.14035625,330.55740541863173L493.8665484375,273.3966386021877L496.8085578125,330.6916902013208L497.60923125,324.7191317857836L498.8195515625,330.64841793828896L498.9312734375,330.68086653969L499.4154015625,330.78017836055636L499.806428125,330.79614525110543L499.91815,330.80108578507367L502.860159375,330.87216331856325L507.3104140625,331.0539719841274L507.552478125,331.0623906639574L508.18556874999996,331.0845391287214L508.63245624999996,331.1002946196293L508.893140625,331.10911993288687L509.414509375,269.9194626916539L511.537225,331.19135190626946L512.1889359375,331.21391570915216L512.8778875,331.23750417853114L514.5723359375,331.21748463250697L516.9929765625,331.3683120588857L518.3895,331.13549265989354L520.0653281250001,331.4615200259934L520.1211890625,331.46329080887057L522.858375,331.51021593335L522.93285625,331.5464970858937L523.7335296875,331.5729786215392L523.9383531249999,331.57993553502655L524.1245562500001,331.58585534674455L524.757646875,331.5921556778167L524.94385,330.96449895126915L525.427978125,322.47827569234437L526.2658921875001,331.5964265723332L526.694159375,331.6564547439868L527.6437953125,331.6905112261884L528.0906828125001,331.7043883691076L528.4444687499999,331.66993768875153L529.3196234375,329.52326697487894L531.42371875,331.800784740216L532.3361140625,307.0384790604426L533.844359375,331.86441914104347L534.0491828125,331.8650427699851L534.4215890625,331.8827568163926L535.780871875,331.9234363250011L536.8422296875,322.57001194489106L538.8346031250001,332.0063192849259L541.4600671875,332.0830853340555L542.186259375,332.10325223806484L542.7262484375,332.1183977788314L544.346215625,297.5576229766011L545.239990625,331.9097693381958L545.27723125,332.08153900785624L545.984803125,332.2022115189413L546.4130703124999,332.21426316378216L547.7351125,332.25138369725425L550.3605765625,332.31529726996087L551.5522765625,332.3513172817713L553.3770671875001,332.02916474674237L553.5260296875,332.39576529986647L556.3563171875,311.8097092736174L556.7659640625,328.20431352508336L557.380434375,332.4467405927664L558.7583375,332.5347307193178L559.4845296875001,332.5539985530883L561.0858765625,332.4539698387327L562.445159375,332.623516703342L562.9106671875,332.6369424458508L563.15273125,332.64316319117574L563.3203140625,332.647427246292L564.79131875,323.5853930228305L565.8899171874999,332.62043337739834L568.0126328125,332.7582423164594L568.2919375,332.76518182056446L569.7629421875,331.0834050318226L571.3829093749999,332.8355909581296L573.0401171875001,326.18543327256873L573.7290687499999,331.2067542354238L574.3807796875,332.86837531190196L575.7586828125,332.93686133449563L578.0676015624999,332.98409734080036L578.458628125,332.9979850537017L578.6262109375,333.0033371952066L578.9241359375,333.010418461424L580.097215625,333.03724880647763L580.1158359375,333.037687771615L580.3765203124999,333.04371141786265L582.66681875,333.07873474254103L582.8716421875,333.097063713199L584.7336734375,329.8878940501758L585.981234375,333.13427253710955L589.705296875,333.2382991917389L592.0700765625,332.8581964191769L592.088696875,332.62873889624393L592.6286859375,333.2047780480405L592.6659265625,330.31687241978943L594.5093375,333.34458471371113L597.302384375,333.38712640445345L598.4940843749999,333.42640694484794L598.6058062500001,333.42869441331874L598.7175281250001,333.43074996394785L598.792009375,333.431547064948L598.8106296875001,333.4315644743302L600.9519656250001,333.4715183847584L601.9760828125001,333.49644799833186L604.2105203125,333.52587731544526L605.2532578124999,333.55948364076374L607.0780484375,326.42605456184936L607.2642515625,333.5544044535015L607.39459375,333.2550165510144L607.7297593750001,333.58507108027965L608.7911171875,333.6269586756614L609.6104109375,333.6438246364494L611.2117578125001,330.52210540912876L612.90620625,333.70523809751666L612.943446875,333.70606628669935L613.539296875,333.7178474643522L613.8744624999999,333.7244481072676L619.1440109375001,333.30111597336577L619.6281390624999,333.7093902351758L620.4474328125,333.8439187492159L621.47155,333.86316482125864L622.626009375,333.84487004760143L622.8680734375,333.75242747154766L624.5811421875001,333.9183214747093L625.12113125,333.84092060489246L625.8473234375,332.0386988705617L631.0610109375,334.029265871716L632.5320156250001,334.05476688608445L633.01614375,320.237571309236L633.425790625,333.75798603858465L633.7795765625,334.07245730547316L634.245084375,334.0467741143551L634.543009375,334.0812882146036L634.766453125,334.09098088815387L635.5671265625,334.10645782894625L636.8333078124999,330.90038765772164L637.9877671874999,334.1160771343857L641.8607921875,334.08445236982186L641.991134375,334.14376116093166L642.1587171875,334.19801439179787L643.0897328125,334.2297616438009L643.14559375,334.23081802024336L643.5366203125,334.2374652954326L644.11385,334.2398304843598L644.4676359375,315.68427920383823L646.9999984374999,334.29260453950104L648.50824375,325.9053760019808L648.5268640625001,330.0605839300393L649.1599546875,334.30911049913533L651.7109375,333.9237886424896L651.8040390625,334.1554422346367L652.2881671875,334.37658242521474L653.1447015625,334.3898999808483L653.4240062499999,334.39424921758473L654.9508718750001,334.418344424339L655.7515453125,330.39082125781783L656.2356734375,333.0758715209297L656.99910625,334.43753888999873L657.7997796875,334.4614146141843L660.2576609375,334.4467142561916L660.388003125,334.44571321671407L660.4624843749999,334.479172805811L662.36175625,334.5302407414949L663.1065687500001,334.50452521866697L664.856878125,334.5642282079313L665.1175625000001,334.5702848076524L665.452728125,334.5754603682806L666.2347812500001,334.58738641686404L671.29950625,333.14054551058115L672.2863828125,334.66629133295186L674.5022,332.1149930010804L677.891096875,330.6410002979365L678.5800484375001,334.74935584786266L680.3303578125,334.78751659192227L683.2909875,334.817230055024L683.775115625,334.83459280496885L684.519928125,334.8459064163564L685.3764625,323.9184456964193L686.5867828125,334.8534129689109L686.717125,334.8708814186764L686.8660875,334.8759717976844L687.7598625,334.8896561938719L687.9274453125,334.8920649062546L689.02604375,334.89974928321317L689.2681078125,334.8807090149388L691.968053125,334.946232333737L692.1914968750001,334.9489295444536L692.8059671875,321.3396075871688L693.5880203125,334.95682967339894L694.798340625,334.98272053357636L696.17624375,317.25252381525934L697.0513984375,334.9088096231307L698.26171875,335.0265996379312L698.8017078124999,335.03388795144434L699.0437718750001,335.03703158846207L700.3285734375,334.15819789113647L700.3844343750001,334.8337148746941L701.1851078125001,335.0612542567648L702.097503125,335.0753726439805L703.1402406249999,335.07657264782625L705.5981218750001,335.1186125753024L705.7470843750001,335.12061962836674L705.8774265625,335.1222349703312L707.609115625,334.86211206414737L707.832559375,335.0426131607541L708.204965625,335.1245286564385L710.3276812500001,335.1772330740509L710.4021625,335.17805566736075L710.9049109375,328.3120825751261L710.9421515624999,321.28719539847225L712.6179796875,335.2022379210261L713.9214015625,335.22088523467323L714.4241499999999,335.226919450903L714.5544921874999,335.22425519365987L715.0758609375,327.9913109771653L717.6082234375,335.2648414377208L719.3212921875,333.53091173572466L719.451634375,334.6594482022126L721.1274625,335.30620488634503L721.2950453125,335.3082374317191L721.5184890625001,335.3109458341814L721.8722750000001,335.31529382739046L722.1888203125,335.3189877252391L723.1943171875,335.30390125201933L723.4177609374999,335.29212318318474L723.8832687500001,335.3155922739428L724.5722203125,335.34517516667785L725.6521984374999,335.3589702367952L726.5087328124999,335.36895265220664L726.8625187499999,335.3728635455693L726.9928609375,335.37430541547525L727.8493953125,335.3838426481128L728.8176515625,335.39482548123823L728.8735125,335.3954652760347L729.5252234375,335.40297742446205L731.9458640625,335.4231387325986L732.9141203125,335.44069298574783L732.9327406250001,335.44092739064416L733.3237671875,335.4455209804953L734.347884375,321.6998823169111L735.9678515625,335.4749073959167L735.9864718749999,335.47495651524514L736.69404375,335.4831264896149L737.3457546875001,335.4905534564221L737.5133375,335.4924342914654L738.2395296875,332.92167600085537L739.151925,335.46066776478915L740.1760421875,335.5199156230612L740.7718921875,335.5271915013013L742.540821875,335.23794145513835L745.3711093750001,335.5768915569537L746.2835046875,335.5768977745902L746.9538359375,335.5871979112271L748.1082953125,335.6060758991887L749.542059375,335.0907830560622L749.5979203125,335.2444730822886L751.0130640625,335.6361164099706L751.404090625,335.6408753889528L751.5530531249999,335.64223891663875L751.7951171875001,335.63724677628755L751.8323578125,335.6311709018932L751.9440796875,335.5439045082312L753.7688703125,335.66323836217634L753.8061109375,335.66395463390194L755.426078125,332.8124768944161L755.4819390625,335.6657739143438L755.9846875,335.5394141311461L759.1687609375,335.61317644007926L759.299103125,335.65728684051214L760.5280437499999,335.73507569084705L760.6211453125,335.73615320725366L762.5576578125,334.0976915832355L762.874203125,335.38166461004454L764.1217640624999,335.7707419191402L764.4941703125,335.7745023456995L766.48654375,335.7935774327383L767.4548,335.80309290364806L767.7341046875,335.80587716127576L768.013409375,335.80867074535826L768.311334375,335.8116800814275L768.5533984374999,335.8141130425925L769.205109375,335.8204227001195L769.5588953125,335.6547581277449L769.6892375,333.44053528028206L774.0277703124999,335.85052041315726L775.1449890624999,335.87937522065744L775.7035984375,335.859907800755L776.057384375,327.522192789792L777.7145921875001,335.9044092905242L778.440784375,335.91082775669L778.515265625,335.9105143878101L778.6828484375,335.8946326788811L778.7945703125,335.78442320650953L779.2600781250001,334.78894975713706L780.3214359375,335.9214592933528L783.0400015624999,335.9534409502521L785.1999578125,335.4048744253603L785.8144281250001,335.96055330465214L787.8440421875,335.47255712931724L787.9557640625001,334.997631047683L788.123346875,335.80183694107376L790.5253671875,333.4852338691284L791.1584578124999,336.0172469578472L795.9252578125,336.0728512811263L796.27904375,336.0783383453434L797.0797171875,336.08565463822083L798.36451875,335.75216299949466L802.3678859375,336.132188673364L804.2485375,336.1485528708859L805.2726546875,333.9675210106229L805.5519593749999,335.736373311586L806.8367609375,336.1707641337787L807.4698515625,336.17574508238414L808.8477546875,336.0952950836244L809.1456796875,336.175620729654L809.350503125,336.18570262724955L809.98359375,336.1977206968533L811.4732187500001,336.1963919879318L812.6090578125,336.2197504047601L812.6276781250001,336.2196695754855L813.70765625,336.2211008754093L814.0800625,329.7657796691849L814.8807359375,336.2116034356454L814.9738375000001,336.18735527503304L816.3145000000001,336.2515349625821L818.9399640624999,336.27298643029377L819.36823125,336.27674685685304L819.3868515625,336.2769110024568L821.9192140625,336.2930003804451L823.7067640624999,336.31233039058066L824.8053625,328.7663679688492L825.0101859375001,333.5325749534902L830.2983546875,336.3649340824817L831.0617875,336.37085140714504L832.365209375,336.2913023439151L832.886578125,336.3768595093015L833.8362140625,336.39291779910724L835.642384375,336.3909747876989L836.2196140624999,336.4109433491037L836.312715625,336.4118299840695L836.6292609375,336.4146521692799L837.578896875,329.9844775721431L838.2864687499999,336.33052319499916L842.0850125000001,336.45491882682444L843.4256750000001,336.4649397915822L845.3808078125,336.4525213061874L847.000775,336.49167189797896L847.22421875,336.490359976676L847.82006875,334.5093469957779L848.3414375,336.37882303891024L849.9614046875,336.5135256467726L850.1476078125,336.514845651003L850.2593296875,336.5155047204726L850.3338109375,336.5154786063993L850.911040625,335.1256832715378L850.94828125,336.4536367501767L851.208965625,336.4784737209663L851.3206875,336.3205700024793L852.6799703125,336.53302353309385L857.2791874999999,336.16188099650157L858.917775,336.5784663730301L859.401903125,336.5470741480716L861.07773125,336.5939768890596L861.5804796875,336.5975806311789L862.8839015625,335.78486963281074L864.1500828124999,336.61514887401034L864.4480078125,336.6174730265365L865.6769484375001,336.27370705436493L866.5707234375,336.62218008825386L866.8686484375,336.6319862336704L867.4086374999999,336.6383303990799L867.8741453125001,336.6417703064772L868.22793125,336.64432824213605L870.90925625,336.6625154506817L871.0582187499999,336.66356592036954L872.2499187499999,336.6720501962647L872.7526671875,336.67563994870187L875.266409375,336.69266321569347L875.3967515625,336.6933673630278L875.7319171875,336.6956713082354L877.649809375,336.70805497486566L878.096696875,336.7110273159977L878.2829,336.71228327857204L878.543584375,336.71404349146707L879.69804375,336.721898231666L881.4669734375001,336.5872301316862L882.6959140625,336.7420278298563L883.533828125,336.56380705143835L883.8689937500001,336.224080988587L884.055196875,336.14620695663194L884.4462234375,336.7535509755941L886.4758375,333.73321497474205L887.7792593749999,336.7729061671575L889.60405,336.5095277064988L891.7826265625,336.17653161340223L892.4901984375,336.75864695047494L893.10466875,336.8094338489887L893.4212140625,336.8116805919404L894.14740625,336.8171269306384L898.653521875,336.84588474300904L898.951446875,336.8482241287447L901.632771875,336.8389107310213L902.601028125,336.8712909384207L903.420321875,336.87638753506525L904.0720328125001,336.28900803604415L904.6306421874999,336.6905265249079L905.0775296875,336.8634647993498L905.5244171875,336.88902985537425L905.6733796875,336.8889188705626L905.8782031249999,336.8911979452241L905.8968234375,336.8913496555549L907.0140421875,336.00820837965745L907.516790625,336.89074747745923L907.591271875,336.57586056157015L907.8705765625,336.84139529856935L908.3547046875001,336.9042891788889L908.559528125,336.9074026603696L908.7643515625,336.90973085435957L909.378821875,336.9133902443255L910.9615484375,336.91806341992395L911.948425,336.9291737145977L912.02290625,336.9297451153927L912.2649703125,336.93139309994876L913.7545953125,336.9400719878666L913.8290765625,336.94050877683117L914.331825,336.9434506515443L914.4994078125,336.944453245431L916.119375,336.9540203227238L916.2497171875001,336.9549585640727L917.0690109374999,336.9439950056205L918.0558874999999,336.95497783874583L918.7075984375,336.96912047474393L918.7820796875001,336.9699464877538L919.91791875,336.9762381141349L921.7240890625,336.98443948756903L922.4316609374999,336.99143463952083L923.2881953125001,336.9913587843555L923.306815625,336.98901193745604L923.3626765625,336.9721795519052L924.4054140625,336.94617273280693L925.9695203125,337.0122491103724L926.4164078125001,337.01485119125044L927.3288031249999,335.6488109584263L927.5894875,336.7398964240618L930.34529375,336.80623363147873L930.903903125,336.9089067066406L932.0025015625,337.0461336749246L932.9521374999999,337.05283255649687L936.787921875,334.17056725720283L936.9555046875,336.17579668876715L937.9051406250001,337.07858787219845L937.94238125,337.08161803735L940.4561234375,337.0761959474343L941.1264546875001,337.09856389476704L941.9457484374999,337.10430805825376L943.044346875,337.102004423928L943.2677906250001,336.8706803665158L945.3718859375,337.1234412801939L946.0608375,336.14369751853786L946.6380671875,337.10983553710815L947.289778125,337.1306431685596L950.0828250000001,337.14909742459315L950.2504078125,337.1485714125447L950.75315625,337.1526862443848L951.311765625,337.1558404513846L951.9448562499999,337.1591003582051L952.7827703125,337.1634679369692L952.9317328125,337.16424576329615L953.4531015625,337.1670045286142L955.5571968749999,337.1784132698403L955.855121875,337.17881430739493L957.00958125,337.17296693114224L957.3261265625,337.17732176375154L958.9274734375,337.1965476284756L959.0950562500001,337.19740224261346L959.728146875,334.0718050754037L961.8694828125,337.2122182486452L962.595675,337.2158689339201L963.5639312500001,336.95628478593954L968.9265812499999,337.2493201292078L969.3176078125,337.1868736078349L971.943071875,337.26512380679856L972.7437453125,334.5974409568589L973.730621875,337.2742870486003L973.8609640625,337.27233688690995L974.2333703125,337.27606746881395L974.7174984374999,337.2795226094207L976.3933265625,337.2859432517593L977.3615828125,337.2928429629908L978.4788015625,337.2945795488671L978.60914375,337.2538571385667L979.1491328124999,336.81560858380345L980.136009375,337.3068699509498L980.2104906249999,337.306079378468L980.4525546875001,337.3080945144598L980.7132390625001,337.3099022922741L981.1601265625,337.31232033111155L981.3835703125,337.3132511112966L981.9794203125,336.0349411078178L982.1097625,336.4480259549931L982.370446875,337.1213875948557L984.4745421875,337.32903644685973L984.679365625,337.33002442930064L984.7910875,337.3304195601006L985.5545203125,336.5346339009491L985.6290015625,337.2827023087302L985.8896859375,337.2699822679649L986.317953125,337.3266923978967L988.2917062500001,337.3473688372178L989.0923796874999,337.3510897817852L989.9116734375,337.35497145225634L990.2468390624999,337.35657435894774L990.5447640625,337.3580190267901L991.1033734375,337.3607240095523L992.3881749999999,337.36441604210995L994.7157140625,337.3782344283642L995.5163875000001,337.3821729902093L995.553628125,337.382219933365L996.2425796875001,337.3504863601622L996.2612,337.3136683147062L996.447403125,337.13741137677886L996.596365625,337.3738348287721L997.0618734374999,337.3796859356067L998.607359375,337.39701697560537L998.7004609375,337.3974957336164L998.979765625,337.39879677405537L1002.59210625,337.4151208678218L1005.1617093750001,337.4280681632015L1009.109215625,337.4465718494453L1010.5616,337.4493094747992L1011.567096875,337.4577564448753L1012.0326046875,337.46001469045456L1014.3787640625001,337.4641242373036L1015.887009375,337.4777588923991L1016.7994046875,337.33795813348314L1017.0228484375,337.0257674956652L1017.376634375,337.4071330702017L1018.4752328124999,337.4893899141303L1020.6351890625,337.3515464671866L1022.1061937500001,337.5057736972072L1022.8882468749999,337.50585918970916L1024.228909375,337.5117416956081L1025.159925,337.5190915637226L1025.8488765625,337.52190784217834L1026.8916140625,337.5262371824779L1027.1895390625,337.5274878600612L1027.7481484375,337.5298645516159L1028.6046828125,337.53355751681903L1029.10743125,337.53576664306985L1031.230146875,337.48942473289475L1031.5653125000001,337.5464314440879" style="fill: none;" fill="none"></path></g></g></g></g></g></g><g transform="translate(74, 376)" clip-path="url(#clip_1)"><clipPath id="clip_1"><rect width="1117" height="24"></rect></clipPath><g><g><line x1="0" y1="0" x2="0" y2="5" style="visibility: inherit;" fill="rgb(0, 0, 0)" stroke="rgb(204, 204, 204)" stroke-width="1px"></line><line x1="93.1015625" y1="0" x2="93.1015625" y2="5" style="visibility: inherit;" fill="rgb(0, 0, 0)" stroke="rgb(204, 204, 204)" stroke-width="1px"></line><line x1="186.203125" y1="0" x2="186.203125" y2="5" style="visibility: inherit;" fill="rgb(0, 0, 0)" stroke="rgb(204, 204, 204)" stroke-width="1px"></line><line x1="279.3046875" y1="0" x2="279.3046875" y2="5" style="visibility: inherit;" fill="rgb(0, 0, 0)" stroke="rgb(204, 204, 204)" stroke-width="1px"></line><line x1="372.40625" y1="0" x2="372.40625" y2="5" style="visibility: inherit;" fill="rgb(0, 0, 0)" stroke="rgb(204, 204, 204)" stroke-width="1px"></line><line x1="465.5078125" y1="0" x2="465.5078125" y2="5" style="visibility: inherit;" fill="rgb(0, 0, 0)" stroke="rgb(204, 204, 204)" stroke-width="1px"></line><line x1="558.609375" y1="0" x2="558.609375" y2="5" style="visibility: inherit;" fill="rgb(0, 0, 0)" stroke="rgb(204, 204, 204)" stroke-width="1px"></line><line x1="651.7109375" y1="0" x2="651.7109375" y2="5" style="visibility: inherit;" fill="rgb(0, 0, 0)" stroke="rgb(204, 204, 204)" stroke-width="1px"></line><line x1="744.8125" y1="0" x2="744.8125" y2="5" style="visibility: inherit;" fill="rgb(0, 0, 0)" stroke="rgb(204, 204, 204)" stroke-width="1px"></line><line x1="837.9140625" y1="0" x2="837.9140625" y2="5" style="visibility: inherit;" fill="rgb(0, 0, 0)" stroke="rgb(204, 204, 204)" stroke-width="1px"></line><line x1="931.015625" y1="0" x2="931.015625" y2="5" style="visibility: inherit;" fill="rgb(0, 0, 0)" stroke="rgb(204, 204, 204)" stroke-width="1px"></line><line x1="1024.1171875" y1="0" x2="1024.1171875" y2="5" style="visibility: inherit;" fill="rgb(0, 0, 0)" stroke="rgb(204, 204, 204)" stroke-width="1px"></line><line x1="1117.21875" y1="0" x2="1117.21875" y2="5" style="visibility: inherit;" fill="rgb(0, 0, 0)" stroke="rgb(204, 204, 204)" stroke-width="1px"></line></g><g transform="translate(0, 8)"><text x="0" y="0" dx="0em" dy="0.95em" style="text-anchor: middle; visibility: hidden; font-family: Roboto, sans-serif; font-size: 12px; font-weight: 200;" fill="rgb(33, 33, 33)" stroke="none" stroke-width="1px">-5k</text><text x="93.1015625" y="0" dx="0em" dy="0.95em" style="text-anchor: middle; visibility: inherit; font-family: Roboto, sans-serif; font-size: 12px; font-weight: 200;" fill="rgb(33, 33, 33)" stroke="none" stroke-width="1px">0</text><text x="186.203125" y="0" dx="0em" dy="0.95em" style="text-anchor: middle; visibility: inherit; font-family: Roboto, sans-serif; font-size: 12px; font-weight: 200;" fill="rgb(33, 33, 33)" stroke="none" stroke-width="1px">5k</text><text x="279.3046875" y="0" dx="0em" dy="0.95em" style="text-anchor: middle; visibility: inherit; font-family: Roboto, sans-serif; font-size: 12px; font-weight: 200;" fill="rgb(33, 33, 33)" stroke="none" stroke-width="1px">10k</text><text x="372.40625" y="0" dx="0em" dy="0.95em" style="text-anchor: middle; visibility: inherit; font-family: Roboto, sans-serif; font-size: 12px; font-weight: 200;" fill="rgb(33, 33, 33)" stroke="none" stroke-width="1px">15k</text><text x="465.5078125" y="0" dx="0em" dy="0.95em" style="text-anchor: middle; visibility: inherit; font-family: Roboto, sans-serif; font-size: 12px; font-weight: 200;" fill="rgb(33, 33, 33)" stroke="none" stroke-width="1px">20k</text><text x="558.609375" y="0" dx="0em" dy="0.95em" style="text-anchor: middle; visibility: inherit; font-family: Roboto, sans-serif; font-size: 12px; font-weight: 200;" fill="rgb(33, 33, 33)" stroke="none" stroke-width="1px">25k</text><text x="651.7109375" y="0" dx="0em" dy="0.95em" style="text-anchor: middle; visibility: inherit; font-family: Roboto, sans-serif; font-size: 12px; font-weight: 200;" fill="rgb(33, 33, 33)" stroke="none" stroke-width="1px">30k</text><text x="744.8125" y="0" dx="0em" dy="0.95em" style="text-anchor: middle; visibility: inherit; font-family: Roboto, sans-serif; font-size: 12px; font-weight: 200;" fill="rgb(33, 33, 33)" stroke="none" stroke-width="1px">35k</text><text x="837.9140625" y="0" dx="0em" dy="0.95em" style="text-anchor: middle; visibility: inherit; font-family: Roboto, sans-serif; font-size: 12px; font-weight: 200;" fill="rgb(33, 33, 33)" stroke="none" stroke-width="1px">40k</text><text x="931.015625" y="0" dx="0em" dy="0.95em" style="text-anchor: middle; visibility: inherit; font-family: Roboto, sans-serif; font-size: 12px; font-weight: 200;" fill="rgb(33, 33, 33)" stroke="none" stroke-width="1px">45k</text><text x="1024.1171875" y="0" dx="0em" dy="0.95em" style="text-anchor: middle; visibility: inherit; font-family: Roboto, sans-serif; font-size: 12px; font-weight: 200;" fill="rgb(33, 33, 33)" stroke="none" stroke-width="1px">50k</text><text x="1117.21875" y="0" dx="0em" dy="0.95em" style="text-anchor: middle; visibility: hidden; font-family: Roboto, sans-serif; font-size: 12px; font-weight: 200;" fill="rgb(33, 33, 33)" stroke="none" stroke-width="1px">55k</text></g><line x1="0" y1="0" x2="1117.21875" y2="0" fill="rgb(0, 0, 0)" stroke="rgb(204, 204, 204)" stroke-width="1px"></line></g></g></g></g></svg>